<svg width="20" height="19" viewBox="0 0 20 19" fill="none" xmlns="http://www.w3.org/2000/svg">
<path fill-rule="evenodd" clip-rule="evenodd" d="M9.57088 14.1431C13.7744 19.8734 17.8881 12.5437 17.8821 8.13591C17.8749 2.92445 12.5928 0.0117493 9.56744 0.0117493C4.71151 0.0117493 0.0869141 4.02502 0.0869141 9.51603C0.0869141 15.6193 5.38791 19 9.56744 19C8.62166 18.8638 5.46985 18.1885 5.42746 10.9289C5.39897 6.01896 7.02916 4.05732 9.56055 4.92028C9.61725 4.94131 12.3528 6.02044 12.3528 9.54571C12.3528 13.056 9.57088 14.1431 9.57088 14.1431V14.1431Z" fill="url(#paint0_linear_75_504)"/>
<path fill-rule="evenodd" clip-rule="evenodd" d="M9.56591 4.91634C6.78835 3.95899 3.3858 6.24824 3.3858 10.8335C3.3858 18.3205 8.93392 19 9.6064 19C14.4623 19 19.0869 14.9867 19.0869 9.49569C19.0869 3.39242 13.7859 0.0117258 9.6064 0.0117258C10.764 -0.148587 15.8456 1.26454 15.8456 8.20987C15.8456 12.7391 12.0512 15.2048 9.58336 14.1513C9.52667 14.1303 6.79108 13.0511 6.79108 9.52586C6.79108 6.01561 9.56591 4.91622 9.56591 4.91622V4.91634Z" fill="url(#paint1_linear_75_504)"/>
<defs>
<linearGradient id="paint0_linear_75_504" x1="2.89686" y1="2.80998" x2="16.2804" y2="16.1977" gradientUnits="userSpaceOnUse">
<stop/>
<stop offset="1" stop-color="white"/>
</linearGradient>
<linearGradient id="paint1_linear_75_504" x1="16.2823" y1="16.1958" x2="2.89875" y2="2.80927" gradientUnits="userSpaceOnUse">
<stop/>
<stop offset="1" stop-color="white"/>
</linearGradient>
</defs>
</svg>
