<svg width="19" height="19" viewBox="0 0 19 19" fill="none" xmlns="http://www.w3.org/2000/svg">
<path d="M3.13113 6.00848C3.75925 6.00848 4.26843 5.49116 4.26843 4.853C4.26843 4.21485 3.75925 3.69753 3.13113 3.69753C2.50302 3.69753 1.99384 4.21485 1.99384 4.853C1.99384 5.49116 2.50302 6.00848 3.13113 6.00848Z" fill="#509EE3"/>
<path d="M3.13113 9.24382C3.75925 9.24382 4.26843 8.72649 4.26843 8.08834C4.26843 7.45019 3.75925 6.93286 3.13113 6.93286C2.50302 6.93286 1.99384 7.45019 1.99384 8.08834C1.99384 8.72649 2.50302 9.24382 3.13113 9.24382Z" fill="#509EE3"/>
<path opacity="0.2" d="M6.31558 6.00848C6.9437 6.00848 7.45288 5.49116 7.45288 4.853C7.45288 4.21485 6.9437 3.69753 6.31558 3.69753C5.68747 3.69753 5.17828 4.21485 5.17828 4.853C5.17828 5.49116 5.68747 6.00848 6.31558 6.00848Z" fill="#509EE3"/>
<path d="M6.31558 9.27525C6.9437 9.27525 7.45288 8.75793 7.45288 8.11977C7.45288 7.48162 6.9437 6.96429 6.31558 6.96429C5.68747 6.96429 5.17828 7.48162 5.17828 8.11977C5.17828 8.75793 5.68747 9.27525 6.31558 9.27525Z" fill="#509EE3"/>
<path opacity="0.2" d="M9.5 6.00848C10.1281 6.00848 10.6373 5.49116 10.6373 4.853C10.6373 4.21485 10.1281 3.69753 9.5 3.69753C8.87189 3.69753 8.3627 4.21485 8.3627 4.853C8.3627 5.49116 8.87189 6.00848 9.5 6.00848Z" fill="#509EE3"/>
<path opacity="0.2" d="M9.5 2.31096C10.1281 2.31096 10.6373 1.79363 10.6373 1.15548C10.6373 0.517325 10.1281 0 9.5 0C8.87189 0 8.3627 0.517325 8.3627 1.15548C8.3627 1.79363 8.87189 2.31096 9.5 2.31096Z" fill="#509EE3"/>
<path opacity="0.2" d="M9.5 9.27525C10.1281 9.27525 10.6373 8.75793 10.6373 8.11977C10.6373 7.48162 10.1281 6.96429 9.5 6.96429C8.87189 6.96429 8.3627 7.48162 8.3627 8.11977C8.3627 8.75793 8.87189 9.27525 9.5 9.27525Z" fill="#509EE3"/>
<path opacity="0.2" d="M12.6844 6.00848C13.3126 6.00848 13.8217 5.49116 13.8217 4.853C13.8217 4.21485 13.3126 3.69753 12.6844 3.69753C12.0563 3.69753 11.5471 4.21485 11.5471 4.853C11.5471 5.49116 12.0563 6.00848 12.6844 6.00848Z" fill="#509EE3"/>
<path d="M15.8689 6.00848C16.497 6.00848 17.0062 5.49116 17.0062 4.853C17.0062 4.21485 16.497 3.69753 15.8689 3.69753C15.2408 3.69753 14.7316 4.21485 14.7316 4.853C14.7316 5.49116 15.2408 6.00848 15.8689 6.00848Z" fill="#509EE3"/>
<path d="M12.6844 9.27525C13.3126 9.27525 13.8217 8.75793 13.8217 8.11977C13.8217 7.48162 13.3126 6.96429 12.6844 6.96429C12.0563 6.96429 11.5471 7.48162 11.5471 8.11977C11.5471 8.75793 12.0563 9.27525 12.6844 9.27525Z" fill="#509EE3"/>
<path d="M15.8689 9.27525C16.497 9.27525 17.0062 8.75793 17.0062 8.11977C17.0062 7.48162 16.497 6.96429 15.8689 6.96429C15.2408 6.96429 14.7316 7.48162 14.7316 8.11977C14.7316 8.75793 15.2408 9.27525 15.8689 9.27525Z" fill="#509EE3"/>
<path d="M3.13113 12.4792C3.75925 12.4792 4.26843 11.9618 4.26843 11.3237C4.26843 10.6855 3.75925 10.1682 3.13113 10.1682C2.50302 10.1682 1.99384 10.6855 1.99384 11.3237C1.99384 11.9618 2.50302 12.4792 3.13113 12.4792Z" fill="#509EE3"/>
<path opacity="0.2" d="M6.31558 12.5106C6.9437 12.5106 7.45288 11.9933 7.45288 11.3551C7.45288 10.717 6.9437 10.1996 6.31558 10.1996C5.68747 10.1996 5.17828 10.717 5.17828 11.3551C5.17828 11.9933 5.68747 12.5106 6.31558 12.5106Z" fill="#509EE3"/>
<path d="M9.5 12.5106C10.1281 12.5106 10.6373 11.9933 10.6373 11.3551C10.6373 10.717 10.1281 10.1996 9.5 10.1996C8.87189 10.1996 8.3627 10.717 8.3627 11.3551C8.3627 11.9933 8.87189 12.5106 9.5 12.5106Z" fill="#509EE3"/>
<path opacity="0.2" d="M12.6844 12.5106C13.3126 12.5106 13.8217 11.9933 13.8217 11.3551C13.8217 10.717 13.3126 10.1996 12.6844 10.1996C12.0563 10.1996 11.5471 10.717 11.5471 11.3551C11.5471 11.9933 12.0563 12.5106 12.6844 12.5106Z" fill="#509EE3"/>
<path d="M15.8689 12.5106C16.497 12.5106 17.0062 11.9933 17.0062 11.3551C17.0062 10.717 16.497 10.1996 15.8689 10.1996C15.2408 10.1996 14.7316 10.717 14.7316 11.3551C14.7316 11.9933 15.2408 12.5106 15.8689 12.5106Z" fill="#509EE3"/>
<path d="M3.13113 15.7145C3.75925 15.7145 4.26843 15.1972 4.26843 14.559C4.26843 13.9209 3.75925 13.4035 3.13113 13.4035C2.50302 13.4035 1.99384 13.9209 1.99384 14.559C1.99384 15.1972 2.50302 15.7145 3.13113 15.7145Z" fill="#509EE3"/>
<path opacity="0.2" d="M6.31558 15.7459C6.9437 15.7459 7.45288 15.2286 7.45288 14.5904C7.45288 13.9523 6.9437 13.435 6.31558 13.435C5.68747 13.435 5.17828 13.9523 5.17828 14.5904C5.17828 15.2286 5.68747 15.7459 6.31558 15.7459Z" fill="#509EE3"/>
<path opacity="0.2" d="M9.5 15.7459C10.1281 15.7459 10.6373 15.2286 10.6373 14.5904C10.6373 13.9523 10.1281 13.435 9.5 13.435C8.87189 13.435 8.3627 13.9523 8.3627 14.5904C8.3627 15.2286 8.87189 15.7459 9.5 15.7459Z" fill="#509EE3"/>
<path opacity="0.2" d="M9.5 18.9813C10.1281 18.9813 10.6373 18.4639 10.6373 17.8258C10.6373 17.1876 10.1281 16.6703 9.5 16.6703C8.87189 16.6703 8.3627 17.1876 8.3627 17.8258C8.3627 18.4639 8.87189 18.9813 9.5 18.9813Z" fill="#509EE3"/>
<path opacity="0.2" d="M12.6844 15.7459C13.3126 15.7459 13.8217 15.2286 13.8217 14.5904C13.8217 13.9523 13.3126 13.435 12.6844 13.435C12.0563 13.435 11.5471 13.9523 11.5471 14.5904C11.5471 15.2286 12.0563 15.7459 12.6844 15.7459Z" fill="#509EE3"/>
<path d="M15.8689 15.7459C16.497 15.7459 17.0062 15.2286 17.0062 14.5904C17.0062 13.9523 16.497 13.435 15.8689 13.435C15.2408 13.435 14.7316 13.9523 14.7316 14.5904C14.7316 15.2286 15.2408 15.7459 15.8689 15.7459Z" fill="#509EE3"/>
</svg>
