<svg width="22" height="18" viewBox="0 0 22 18" fill="none" xmlns="http://www.w3.org/2000/svg">
<path fill-rule="evenodd" clip-rule="evenodd" d="M18.3705 1.27527L18.8312 1.88704C18.9522 2.04851 18.9219 2.27994 18.7618 2.40194L18.2727 2.7769C18.3616 3.01551 18.4185 3.27027 18.4417 3.5304L18.9984 3.60755C19.1976 3.63446 19.3364 3.82104 19.3097 4.02198L19.2065 4.78445C19.1798 4.98539 18.9948 5.12712 18.7956 5.09841L18.1873 5.01409C18.0788 5.2527 17.9401 5.47158 17.7764 5.66713L18.1179 6.11924C18.2389 6.2807 18.2069 6.51214 18.0468 6.63413L17.4402 7.09879C17.2802 7.22079 17.0507 7.1885 16.9297 7.02883L16.558 6.53546C16.3196 6.62516 16.0688 6.68257 15.8092 6.7059L15.7327 7.26744C15.706 7.46837 15.521 7.60831 15.3218 7.5814L14.5658 7.47734C14.3666 7.45043 14.2279 7.26385 14.2546 7.06291L14.3382 6.44934C14.1034 6.33991 13.8846 6.19997 13.6907 6.03671L13.2425 6.37938C13.0824 6.50137 12.8529 6.47087 12.732 6.30941L12.2713 5.69763C12.1503 5.53617 12.1806 5.30473 12.3406 5.18274L12.8298 4.80778C12.7409 4.56737 12.6839 4.31441 12.6608 4.05427L12.1041 3.97713C11.9049 3.95022 11.7643 3.76363 11.7928 3.5627L11.896 2.80022C11.9244 2.59929 12.1076 2.45935 12.3069 2.48626L12.9152 2.57058C13.0237 2.33377 13.1624 2.1131 13.3243 1.91754L12.9845 1.46544C12.8636 1.30577 12.8938 1.07433 13.0539 0.952337L13.6605 0.487675C13.8205 0.365679 14.05 0.396178 14.171 0.557644L14.5427 1.05101C14.7793 0.961308 15.0319 0.903898 15.2898 0.880575L15.3663 0.319034C15.3929 0.118099 15.5779 -0.0236323 15.7771 0.00327859L16.5331 0.107334C16.7323 0.134245 16.8728 0.320828 16.8444 0.521763L16.7608 1.13533C16.9973 1.24477 17.2143 1.38471 17.41 1.54976L17.8582 1.20709C18.0183 1.0833 18.2478 1.1138 18.3705 1.27527ZM5.3645 12.0414V9.08123H6.87641C7.15745 9.08123 7.3709 9.10456 7.51853 9.15479C7.66617 9.20323 7.78712 9.29293 7.87606 9.4239C7.96677 9.55666 8.01302 9.71633 8.01302 9.90471C8.01302 10.068 7.97744 10.2115 7.90807 10.3299C7.8387 10.4501 7.74265 10.547 7.6217 10.6205C7.54521 10.6672 7.43849 10.7067 7.30331 10.7372C7.41181 10.7748 7.49007 10.8089 7.5381 10.8466C7.57189 10.8717 7.61992 10.9237 7.68218 11.0027C7.74443 11.0816 7.78712 11.1444 7.80846 11.1875L8.24959 12.0432H7.22504L6.74123 11.1408C6.67898 11.0242 6.62561 10.9471 6.57759 10.913C6.51178 10.8681 6.43707 10.8448 6.35525 10.8448H6.27521V12.0432H5.3645V12.0414ZM8.56264 17.1958H6.8693L6.62561 17.9995H5.09947L6.9191 13.1215H8.55553L10.368 17.9995H8.80277L8.56264 17.1958ZM8.24603 16.1391L7.71775 14.3845L7.18769 16.1391H8.24603ZM10.7202 13.1215H13.2069C13.7494 13.1215 14.1549 13.2506 14.4235 13.5108C14.6921 13.7709 14.8273 14.1423 14.8273 14.6213C14.8273 15.1147 14.6797 15.5004 14.3862 15.7785C14.0927 16.0565 13.6427 16.1947 13.0397 16.1947H12.2197V17.9995H10.7202V13.1215V13.1215ZM12.2197 15.2062H12.5879C12.8778 15.2062 13.0824 15.1559 13.1998 15.0537C13.3172 14.9532 13.3759 14.8222 13.3759 14.6661C13.3759 14.5137 13.3243 14.3827 13.2229 14.2768C13.1215 14.171 12.9294 14.1172 12.6484 14.1172H12.2197V15.2062V15.2062ZM15.4321 13.1215H16.9315V17.9995H15.4321V13.1215V13.1215ZM6.27521 10.2833H6.65763C6.69854 10.2833 6.77858 10.2689 6.89776 10.242C6.95824 10.2294 7.00804 10.1989 7.04539 10.1487C7.08452 10.0985 7.10231 10.0411 7.10231 9.97647C7.10231 9.88138 7.07207 9.80603 7.0116 9.7558C6.95112 9.70377 6.83906 9.67866 6.67364 9.67866H6.27521V10.2833ZM8.4239 9.08123H10.8519V9.71274H9.33461V10.1846H10.7416V10.7874H9.33461V11.3705H10.8963V12.0396H8.4239V9.08123ZM11.1116 11.0619L11.9725 11.0081C11.9902 11.1498 12.0294 11.2556 12.0863 11.3292C12.1806 11.4476 12.314 11.5086 12.4865 11.5086C12.6146 11.5086 12.716 11.4781 12.7853 11.4171C12.8547 11.3561 12.8903 11.2843 12.8903 11.2036C12.8903 11.1265 12.8565 11.0583 12.7907 10.9973C12.7249 10.9363 12.5701 10.8807 12.3264 10.8251C11.9298 10.7354 11.6469 10.6152 11.4762 10.4662C11.3054 10.3173 11.2201 10.1272 11.2201 9.89574C11.2201 9.74324 11.2645 9.59972 11.3517 9.46516C11.4388 9.33061 11.5705 9.22296 11.7466 9.14582C11.9226 9.06867 12.1628 9.031 12.4687 9.031C12.844 9.031 13.1286 9.10097 13.3261 9.2427C13.5217 9.38443 13.6391 9.60689 13.6765 9.91547L12.8245 9.9675C12.8013 9.83295 12.7533 9.73427 12.6822 9.67507C12.6092 9.61407 12.5078 9.58357 12.3816 9.58357C12.2766 9.58357 12.1966 9.60689 12.1432 9.65174C12.0898 9.6966 12.0632 9.75221 12.0632 9.8168C12.0632 9.86344 12.0863 9.90471 12.129 9.94418C12.1717 9.98185 12.2713 10.0195 12.4314 10.0536C12.828 10.1397 13.1126 10.2276 13.2834 10.3155C13.4541 10.4035 13.5804 10.5129 13.6569 10.6439C13.7352 10.773 13.7743 10.9201 13.7743 11.0816C13.7743 11.2718 13.7227 11.4458 13.6178 11.6055C13.5146 11.7652 13.3687 11.8871 13.182 11.9697C12.9952 12.0522 12.7604 12.0935 12.4758 12.0935C11.9778 12.0935 11.6309 11.9966 11.4388 11.8028C11.2467 11.6055 11.1382 11.3597 11.1116 11.0619ZM13.9059 9.08123H16.6647V9.81321H15.7398V12.0414H14.8326V9.81321H13.9059V9.08123V9.08123ZM10.8536 2.05569C10.5281 2.03057 10.1991 2.03416 9.87356 2.06645C8.87214 2.16333 7.89918 2.53111 7.0952 3.16083C6.16493 3.88742 5.45877 4.97462 5.18663 6.41526L5.10125 6.86557L4.65657 6.9445C4.22078 7.02165 3.83124 7.1275 3.48973 7.26205C3.15888 7.39123 2.86362 7.5509 2.6057 7.73927C2.39937 7.88998 2.2215 8.05862 2.07031 8.24161C1.6025 8.80674 1.3855 9.5154 1.39084 10.233C1.39617 10.9614 1.63096 11.697 2.06497 12.3016C2.22683 12.5258 2.4136 12.7321 2.62705 12.9116C2.84405 13.0928 3.08774 13.2435 3.36166 13.3565C3.51641 13.4211 3.68183 13.4749 3.85437 13.5179V14.8617C3.49862 14.7971 3.17134 14.7002 2.8654 14.5729C2.46163 14.4042 2.1041 14.1871 1.78927 13.9216C1.49044 13.6704 1.22897 13.3852 1.00663 13.0748C0.414317 12.2495 0.0941475 11.2413 0.0870326 10.2366C0.0799177 9.22117 0.392973 8.21111 1.06889 7.39302C1.28767 7.1275 1.54558 6.88351 1.84085 6.66822C2.18415 6.41705 2.57724 6.20535 3.02192 6.03133C3.32786 5.91113 3.65515 5.81066 4.00022 5.72992C4.39154 4.16191 5.22576 2.95451 6.29833 2.11668C7.30153 1.33268 8.50928 0.875193 9.75261 0.754991C10.4054 0.692198 11.0671 0.720903 11.7145 0.8429C11.7003 0.902104 11.6879 0.961308 11.6807 1.02231L11.679 1.03307C11.6665 1.13533 11.6612 1.23759 11.6665 1.34165C11.5295 1.39547 11.4015 1.46903 11.2859 1.55873L11.2805 1.56232C11.108 1.69329 10.9621 1.86193 10.8536 2.05569ZM20.2649 5.50028C20.3645 5.59178 20.4605 5.68687 20.5548 5.78913C20.7451 5.99545 20.9248 6.22867 21.0937 6.48881C21.6629 7.37149 21.9546 8.55019 21.9422 9.70377C21.9297 10.8358 21.6274 11.9625 21.0084 12.7914C20.6046 13.3314 20.087 13.7727 19.4662 14.1225C19.0411 14.363 18.5626 14.5621 18.0415 14.7236V13.3332C18.3225 13.2273 18.584 13.1089 18.8241 12.9743C19.2919 12.7106 19.6743 12.3895 19.9607 12.0038C20.4054 11.4063 20.6242 10.5613 20.633 9.6948C20.6437 8.78521 20.4232 7.87204 19.9945 7.20823C19.8718 7.01627 19.7366 6.84404 19.5943 6.68975C19.5391 6.63054 19.484 6.57493 19.4271 6.52111C19.436 6.4314 19.4395 6.33991 19.4342 6.24841C19.5712 6.19459 19.6992 6.12103 19.8148 6.03133L19.8202 6.02774C20.0034 5.88601 20.1564 5.7066 20.2649 5.50028ZM15.754 2.29609C16.574 2.40912 17.1468 3.17159 17.0347 3.99865C16.9226 4.82572 16.1667 5.4052 15.3467 5.29217C14.5267 5.17915 13.9522 4.41667 14.066 3.58961C14.1798 2.76255 14.934 2.18306 15.754 2.29609Z" fill="white"/>
</svg>
