<svg width="14" height="16" viewBox="0 0 14 16" fill="none" xmlns="http://www.w3.org/2000/svg">
<path d="M9.65238 0H1.36038C1.12953 0 0.942383 0.187143 0.942383 0.550286V15.7143C0.942383 15.8129 1.12953 16 1.36038 16H12.8101C13.041 16 13.2281 15.8129 13.2281 15.7143V3.708C13.2281 3.50914 13.2015 3.44514 13.1547 3.398L9.8301 0.0734286C9.78295 0.0265714 9.71895 0 9.65238 0Z" fill="#E9E9E0"/>
<path d="M9.7995 0.0431366V3.42857H13.1849L9.7995 0.0431366Z" fill="#D9D7CA"/>
<path d="M12.8101 16H1.36038C1.12953 16 0.942383 15.8129 0.942383 15.582V11.1429H13.2281V15.582C13.2281 15.8129 13.041 16 12.8101 16Z" fill="#F29C1F"/>
<path d="M4.62208 13.7443L5.35265 15.1428H4.80979L4.35265 14.0568H4.31351L3.82122 15.1428H3.27836L4.00893 13.7443L3.23151 12.2637H3.76665L4.27436 13.4357H4.31351L4.86436 12.2637H5.39951L4.62208 13.7443Z" fill="black"/>
<path d="M8.22748 12.264H8.70405V15.1428H8.22748V13.1623L7.58291 14.7637H7.16891L6.52033 13.1623V15.1428H6.04376V12.264H6.52033L7.37576 14.2328L8.22748 12.264Z" fill="black"/>
<path d="M9.90321 12.264V14.7874H11.2275V15.1428H9.42664V12.264H9.90321Z" fill="black"/>
<path d="M3.51381 6.85714C3.44067 6.85714 3.36753 6.82914 3.31181 6.77342C3.2001 6.66171 3.2001 6.48114 3.31181 6.36942L5.0261 4.65514C5.13781 4.54342 5.31838 4.54342 5.4301 4.65514C5.54181 4.76685 5.54181 4.94742 5.4301 5.05914L3.71581 6.77342C3.6601 6.82914 3.58696 6.85714 3.51381 6.85714Z" fill="#F29C1F"/>
<path d="M5.2281 8.57143C5.15496 8.57143 5.08181 8.54343 5.0261 8.48772L3.31181 6.77343C3.2001 6.66172 3.2001 6.48114 3.31181 6.36943C3.42353 6.25772 3.6041 6.25772 3.71581 6.36943L5.4301 8.08372C5.54181 8.19543 5.54181 8.376 5.4301 8.48772C5.37438 8.54343 5.30124 8.57143 5.2281 8.57143Z" fill="#F29C1F"/>
<path d="M8.6567 8.57143C8.58355 8.57143 8.51041 8.54343 8.4547 8.48772C8.34298 8.376 8.34298 8.19543 8.4547 8.08372L10.169 6.36943C10.2807 6.25772 10.4613 6.25772 10.573 6.36943C10.6847 6.48114 10.6847 6.66172 10.573 6.77343L8.8587 8.48772C8.80298 8.54343 8.72984 8.57143 8.6567 8.57143Z" fill="#F29C1F"/>
<path d="M10.371 6.85714C10.2978 6.85714 10.2247 6.82914 10.169 6.77342L8.4547 5.05914C8.34298 4.94742 8.34298 4.76685 8.4547 4.65514C8.56641 4.54342 8.74698 4.54342 8.8587 4.65514L10.573 6.36942C10.6847 6.48114 10.6847 6.66171 10.573 6.77342C10.5173 6.82914 10.4441 6.85714 10.371 6.85714Z" fill="#F29C1F"/>
<path d="M6.08527 9.14286C6.05384 9.14286 6.02155 9.13743 5.99012 9.12629C5.84127 9.07372 5.76327 8.91057 5.81584 8.76172L7.53012 3.90457C7.58298 3.75572 7.74527 3.67743 7.8947 3.73029C8.04355 3.78286 8.12155 3.946 8.06898 4.09486L6.3547 8.952C6.31327 9.06972 6.20298 9.14286 6.08527 9.14286Z" fill="#F29C1F"/>
</svg>
